#N canvas 674 55 932 795 10;
#X obj 576 178 adc~;
#X obj 41 397 freeverb~;
#X msg 365 30 roomsize \$1;
#X msg 365 75 damping \$1;
#X msg 365 119 width \$1;
#X msg 365 163 wet \$1;
#X msg 365 207 dry \$1;
#X msg 399 230 print;
#X msg 418 269 freeze \$1;
#X msg 423 306 bypass \$1;
#X obj 423 287 tgl 15 0 empty empty empty 0 -6 0 8 -262144 -1 -1 0
1;
#X obj 418 250 tgl 15 0 empty empty empty 0 -6 0 8 -262144 -1 -1 0
1;
#X obj 377 184 hsl 60 18 0 1 0 1 empty empty dry 2 9 1 12 -225271 -1
-1 3100 0;
#X obj 377 140 hsl 60 18 0 1 0 1 empty empty wet 2 9 1 12 -225271 -1
-1 3000 0;
#X obj 377 96 hsl 60 18 0 1 0 1 empty empty width 2 9 1 12 -262131
-1 -1 4300 0;
#X obj 377 52 hsl 60 18 0 2 0 1 empty empty damping 2 9 1 12 -261689
-1 -1 2000 0;
#X obj 377 7 hsl 60 18 0.11 1.1 0 1 empty empty roomsize 2 9 1 12 -261689
-1 -1 3600 0;
#X floatatom 336 15 3 0 0 0 - - -, f 3;
#X floatatom 336 60 3 0 0 0 - - -, f 3;
#X floatatom 336 105 3 0 0 0 - - -, f 3;
#X floatatom 336 148 3 0 0 0 - - -, f 3;
#X floatatom 336 192 3 0 0 0 - - -, f 3;
#X obj 56 218 readsf~ 1;
#X msg 82 187 stop;
#X msg 34 127 start;
#X obj 158 535 cos~;
#X obj 231 535 cos~;
#X obj 250 450 hsl 100 15 0 0.99 0 0 empty empty empty -2 -8 0 10 -204786
-1 -1 5700 1;
#X floatatom 316 483 5 0 0 0 - - -, f 5;
#X obj 231 504 + 0.75;
#X obj 144 583 *~;
#X obj 217 585 *~;
#X text 355 450 <-- Range: 0-.25;
#X floatatom 282 594 5 0 0 0 - - -, f 5;
#X obj 281 570 snapshot~;
#X floatatom 366 595 5 0 0 0 - - -, f 5;
#X obj 365 571 snapshot~;
#X obj 358 539 metro 50;
#X obj 361 505 tgl 15 0 empty empty empty 17 7 0 10 -262144 -1 -1 0
1;
#X obj 578 222 fiddle~;
#X floatatom 579 251 5 0 0 0 - - -, f 5;
#X obj 573 288 moses 60;
#X floatatom 554 316 5 0 0 0 - - -, f 5;
#X floatatom 628 313 5 0 0 0 - - -, f 5;
#X obj 555 338 / 60;
#X floatatom 510 370 5 0 0 0 - - -, f 5;
#X floatatom 589 385 5 0 0 0 - - -, f 5;
#X obj 630 338 / 120;
#N canvas 451 37 930 743 META 1;
#X obj 531 306 +~;
#X obj 530 258 +~;
#X obj 530 283 +~;
#X obj 654 241 +~;
#X obj 531 337 +~;
#X obj 532 360 +~;
#X obj 530 237 +~;
#X obj 761 383 osc~ 493.883;
#X obj 730 155 +~;
#X obj 641 153 +~;
#X obj 539 125 +~;
#X text 663 74 comment;
#X obj 501 155 +~;
#X obj 456 133 +~;
#X obj 501 186 +~;
#X obj 531 215 +~;
#X obj 677 370 osc~ 379.91;
#X obj 758 277 osc~ 292.238;
#X obj 658 273 osc~ 224.798;
#X obj 743 194 osc~ 172.922;
#X obj 655 194 osc~ 133.017;
#X obj 731 103 osc~ 102.321;
#X obj 641 82 osc~ 78.708;
#X obj 539 64 osc~ 60.544;
#X obj 456 64 osc~ 46.572;
#X obj 677 409 +~;
#X obj 758 331 +~;
#X obj 657 331 +~;
#X obj 744 243 +~;
#X obj 760 427 +~;
#X obj 471 97 osc~ 47;
#X obj 554 98 osc~ 61;
#X obj 746 125 osc~ 103;
#X obj 670 213 osc~ 134;
#X obj 758 217 osc~ 173;
#X obj 675 295 osc~ 225;
#X obj 774 300 osc~ 293;
#X obj 696 390 osc~ 380;
#X obj 774 403 osc~ 494;
#X obj 656 114 osc~ 79;
#X text 602 460 Babel [493.883 hz/ 1.3];
#N canvas 876 177 375 255 startup 0;
#X obj 22 24 loadbang;
#X obj 22 48 bng 15 250 50 0 empty empty empty 0 -6 0 8 -262144 -1
-1;
#X obj 22 67 f \$0;
#X text 35 195 This subpatch loads initial;
#X text 31 219 values in number boxes.;
#X msg 22 91 \; \$1-pole 80;
#X connect 0 0 1 0;
#X connect 1 0 2 0;
#X connect 2 0 5 0;
#X restore 283 443 pd startup;
#N canvas 1597 84 660 424 chord 0;
#X obj 87 97 -~ 0.5;
#X obj 87 146 clip~ -0.5 0.5;
#X obj 87 169 cos~;
#X obj 91 252 hip~ 5;
#X obj 91 315 outlet~;
#X obj 87 122 *~ 3;
#X obj 221 97 -~ 0.5;
#X obj 221 146 clip~ -0.5 0.5;
#X obj 221 169 cos~;
#X obj 221 122 *~ 3;
#X obj 356 100 -~ 0.5;
#X obj 356 149 clip~ -0.5 0.5;
#X obj 356 172 cos~;
#X obj 356 125 *~ 3;
#X obj 491 100 -~ 0.5;
#X obj 491 149 clip~ -0.5 0.5;
#X obj 491 172 cos~;
#X obj 491 125 *~ 3;
#X text 147 32 test sound for phaser;
#X obj 91 285 *~ 0.9;
#X obj 87 74 phasor~ 56;
#X obj 221 74 phasor~ 57;
#X obj 356 77 phasor~ 58;
#X obj 491 77 phasor~ 59;
#X connect 0 0 5 0;
#X connect 1 0 2 0;
#X connect 2 0 3 0;
#X connect 3 0 19 0;
#X connect 5 0 1 0;
#X connect 6 0 9 0;
#X connect 7 0 8 0;
#X connect 8 0 3 0;
#X connect 9 0 7 0;
#X connect 10 0 13 0;
#X connect 11 0 12 0;
#X connect 12 0 3 0;
#X connect 13 0 11 0;
#X connect 14 0 17 0;
#X connect 15 0 16 0;
#X connect 16 0 3 0;
#X connect 17 0 15 0;
#X connect 19 0 4 0;
#X connect 20 0 0 0;
#X connect 21 0 6 0;
#X connect 22 0 10 0;
#X connect 23 0 14 0;
#X restore 33 153 pd chord;
#X obj 55 207 rpole~;
#X obj 55 182 rzero_rev~;
#X obj 55 256 rpole~;
#X obj 55 231 rzero_rev~;
#X obj 55 304 rpole~;
#X obj 55 279 rzero_rev~;
#X obj 55 353 rpole~;
#X obj 55 328 rzero_rev~;
#X obj 32 383 +~;
#X obj 210 331 expr~ 1 - 0.03 - 0.6*abs($v1-0.5)*abs($v1-0.5);
#X obj 210 299 phasor~ 0.5;
#X obj 31 494 *~ 0.1;
#X obj 142 366 vsl 50 128 0 1 0 0 empty empty empty 0 -9 0 10 -260097
-1 -1 0 1;
#X text 371 499 VOLUMEN;
#X obj 370 360 vsl 50 128 0 1 0 0 empty empty empty 0 -9 0 10 -257985
-1 -1 0 1;
#X obj 445 508 *~ 0.1;
#X text 142 504 VOLUMEN;
#X obj 175 588 outlet~;
#N canvas 0 0 450 300 (subpatch) 0;
#X array array1 100 float 3;
#A 0 -0.0972001 -0.0945935 -0.0897335 -0.0829306 -0.081417 -0.0825165
-0.0816848 -0.0809556 -0.0801352 -0.0769573 -0.0766097 -0.0818856 -0.0847388
-0.0821922 -0.0794486 -0.0768335 -0.0748906 -0.0790936 -0.0860387 -0.0898116
-0.0949626 -0.102896 -0.107526 -0.108848 -0.112836 -0.117049 -0.11359
-0.105664 -0.0977774 -0.0863989 -0.0733485 -0.0626704 -0.0506483 -0.0381964
-0.0318546 -0.029701 -0.0275192 -0.0276012 -0.0322261 -0.0391233 -0.0470659
-0.0551886 -0.0602818 -0.0626439 -0.0641691 -0.0640681 -0.0618247 -0.0592231
-0.056501 -0.0524509 -0.0493361 -0.0456404 -0.0373737 -0.029442 -0.0268895
-0.025875 -0.0245056 -0.0258022 -0.0253426 -0.0191529 -0.0151602 -0.0153821
-0.0125708 -0.00903013 -0.00866972 -0.00624611 -0.00283496 -0.00511937
-0.00976279 -0.0125919 -0.0176494 -0.0235136 -0.0236076 -0.0214478
-0.0225824 -0.0226753 -0.0195805 -0.016839 -0.0114917 -0.00401657 -0.00224231
-0.00272545 -0.000425984 -0.00165173 -0.00599962 -0.00409302 3.35997e-05
0.000117602 0.00491587 0.012522 0.0123249 0.0127979 0.0205752 0.0244494
0.0239483 0.027596 0.031172 0.0317419 0.0357809 0.0414421;
#X coords 0 1 99 -1 200 140 1;
#X restore 14 -7 graph;
#X obj 304 58 tabwrite~ array1;
#X obj 304 35 metro 160;
#X obj 303 -23 bng 40 250 50 0 empty empty empty 17 7 0 10 -4034 -1
-1;
#X obj 241 34 adc~;
#X connect 0 0 4 0;
#X connect 1 0 2 0;
#X connect 2 0 0 0;
#X connect 3 0 6 1;
#X connect 4 0 5 0;
#X connect 5 0 58 0;
#X connect 6 0 1 0;
#X connect 7 0 29 0;
#X connect 8 0 15 1;
#X connect 9 0 14 1;
#X connect 10 0 12 1;
#X connect 12 0 14 0;
#X connect 13 0 12 0;
#X connect 14 0 15 0;
#X connect 15 0 6 0;
#X connect 16 0 25 0;
#X connect 17 0 26 0;
#X connect 18 0 27 0;
#X connect 19 0 28 0;
#X connect 20 0 3 0;
#X connect 21 0 8 0;
#X connect 22 0 9 0;
#X connect 23 0 10 0;
#X connect 24 0 13 0;
#X connect 25 0 4 1;
#X connect 26 0 0 1;
#X connect 27 0 2 1;
#X connect 28 0 1 1;
#X connect 29 0 5 1;
#X connect 30 0 13 1;
#X connect 31 0 10 1;
#X connect 32 0 8 1;
#X connect 33 0 3 1;
#X connect 34 0 28 1;
#X connect 35 0 27 1;
#X connect 36 0 26 1;
#X connect 37 0 25 1;
#X connect 38 0 29 1;
#X connect 39 0 9 1;
#X connect 42 0 44 0;
#X connect 42 0 51 0;
#X connect 43 0 46 0;
#X connect 44 0 43 0;
#X connect 45 0 48 0;
#X connect 46 0 45 0;
#X connect 47 0 50 0;
#X connect 48 0 47 0;
#X connect 49 0 51 1;
#X connect 50 0 49 0;
#X connect 51 0 54 0;
#X connect 52 0 44 1;
#X connect 52 0 43 1;
#X connect 52 0 46 1;
#X connect 52 0 45 1;
#X connect 52 0 48 1;
#X connect 52 0 47 1;
#X connect 52 0 50 1;
#X connect 52 0 49 1;
#X connect 53 0 52 0;
#X connect 54 0 60 0;
#X connect 55 0 54 1;
#X connect 57 0 58 1;
#X connect 58 0 60 0;
#X connect 63 0 62 0;
#X connect 64 0 63 0;
#X connect 65 0 62 0;
#X restore 709 74 pd META;
#X obj 163 668 dac~ 1 2;
#X obj 401 735 writesf~ 2;
#X msg 743 508 start;
#X msg 801 509 stop;
#X text 585 507 1;
#X text 724 508 2;
#X text 594 482 CAMBIAR NOMBRE FICHERO CADA NUEVA REC.;
#X msg 603 510 open master.wav;
#X msg 43 168 open hablantinMASTER.wav \, 1;
#X connect 0 0 39 0;
#X connect 1 0 30 0;
#X connect 1 0 31 0;
#X connect 1 1 30 0;
#X connect 1 1 31 0;
#X connect 2 0 1 0;
#X connect 3 0 1 0;
#X connect 4 0 1 0;
#X connect 5 0 1 0;
#X connect 6 0 1 0;
#X connect 7 0 1 0;
#X connect 8 0 1 0;
#X connect 9 0 1 0;
#X connect 10 0 9 0;
#X connect 11 0 8 0;
#X connect 12 0 6 0;
#X connect 12 0 21 0;
#X connect 13 0 5 0;
#X connect 13 0 20 0;
#X connect 14 0 4 0;
#X connect 14 0 19 0;
#X connect 15 0 3 0;
#X connect 15 0 18 0;
#X connect 16 0 2 0;
#X connect 16 0 17 0;
#X connect 22 0 1 0;
#X connect 22 0 1 1;
#X connect 22 1 1 1;
#X connect 23 0 22 0;
#X connect 24 0 57 0;
#X connect 25 0 30 1;
#X connect 25 0 34 0;
#X connect 26 0 31 1;
#X connect 26 0 36 0;
#X connect 27 0 28 0;
#X connect 27 0 25 0;
#X connect 27 0 29 0;
#X connect 29 0 26 0;
#X connect 30 0 49 0;
#X connect 30 0 50 0;
#X connect 30 0 50 1;
#X connect 31 0 49 1;
#X connect 31 0 50 0;
#X connect 31 0 50 1;
#X connect 34 0 33 0;
#X connect 36 0 35 0;
#X connect 37 0 36 0;
#X connect 37 0 34 0;
#X connect 38 0 37 0;
#X connect 39 0 40 0;
#X connect 40 0 41 0;
#X connect 41 0 42 0;
#X connect 41 1 43 0;
#X connect 42 0 44 0;
#X connect 43 0 47 0;
#X connect 44 0 45 0;
#X connect 47 0 46 0;
#X connect 48 0 1 0;
#X connect 48 0 1 1;
#X connect 51 0 50 0;
#X connect 51 0 57 0;
#X connect 52 0 50 0;
#X connect 56 0 50 0;
#X connect 57 0 22 0;
