#N canvas 464 22 943 856 10;
#X obj 28 277 *~;
#X obj 485 -36 metro;
#X floatatom 520 -63 5 0 0 0 - - -, f 5;
#X obj 485 -63 tgl 15 0 empty empty empty 0 -6 0 8 -262144 -1 -1 1
1;
#X obj 524 6 del;
#X obj 396 129 line~;
#X obj 396 153 abs~;
#X obj 395 181 *~ -1;
#X obj 394 205 +~ 1;
#X obj 67 277 *~;
#X obj 493 129 line~;
#X obj 493 153 abs~;
#X obj 492 181 *~ -1;
#X obj 491 205 +~ 1;
#X obj 107 277 *~;
#X obj 602 130 line~;
#X obj 602 154 abs~;
#X obj 601 182 *~ -1;
#X obj 600 206 +~ 1;
#X obj 704 130 line~;
#X obj 704 154 abs~;
#X obj 703 182 *~ -1;
#X obj 598 32 del;
#X obj 617 2 / 4;
#X obj 701 58 del;
#X obj 720 28 / 4;
#X obj 396 80 f;
#X obj 493 80 f;
#X obj 602 81 f;
#X obj 704 83 f;
#X text 567 -64 speed;
#X obj 523 -97 hsl 128 30 0 2000 0 0 empty empty empty -2 -8 0 10 -262144
-1 -1 5400 1;
#X obj 660 -35 / 2;
#X obj 543 -24 / 4;
#X obj 702 206 +~ 2;
#X msg 396 106 -1 \, 1 \$1;
#X msg 493 106 -1 \, 1 \$1;
#X msg 602 107 -1 \, 1 \$1;
#X msg 704 107 -1 \, 1 \$1;
#X text 459 -63 ON;
#X obj 175 404 dac~ 1 2 3 4;
#X obj 147 277 *~;
#X obj 348 360 writesf~ 1 2 3 4;
#X msg 413 329 stop;
#X msg 360 328 start;
#N canvas 0 22 796 453 (subpatch) 0;
#X array array1 100 float 3;
#A 0 -0.0232001 -0.0289379 -0.0317633 -0.0335899 -0.0349622 -0.0354644
-0.0347649 -0.0330051 -0.0301496 -0.0265817 -0.0230524 -0.0202725 -0.0198776
-0.0234645 -0.0309029 -0.0407824 -0.0527312 -0.0651472 -0.0738974 -0.0779533
-0.0791353 -0.0786206 -0.0773438 -0.0759643 -0.074349 -0.0722653 -0.0696703
-0.0666841 -0.0640946 -0.0620717 -0.0600912 -0.0585664 -0.0582953 -0.0591185
-0.0604089 -0.0616295 -0.0631815 -0.0666995 -0.0750691 -0.087613 -0.0991995
-0.108719 -0.117549 -0.125536 -0.132519 -0.138114 -0.142018 -0.144336
-0.144998 -0.143831 -0.140831 -0.136317 -0.130716 -0.124623 -0.118521
-0.111774 -0.105071 -0.0999334 -0.0972543 -0.0978715 -0.101204 -0.106176
-0.11164 -0.116801 -0.121205 -0.124343 -0.126377 -0.127416 -0.127418
-0.126705 -0.126191 -0.130024 -0.138566 -0.146601 -0.152838 -0.157838
-0.161083 -0.162718 -0.162804 -0.160875 -0.157428 -0.153614 -0.149985
-0.146374 -0.141933 -0.136681 -0.13188 -0.127924 -0.1238 -0.119448
-0.11542 -0.111445 -0.107626 -0.104 -0.100745 -0.0978966 -0.0956989
-0.0939274 -0.0925212 -0.0920563;
#X coords 0 1 99 -1 200 140 1;
#X restore 494 -250 graph;
#X obj 346 -141 tabwrite~ array1;
#X obj 352 -185 bng 15 250 50 0 empty empty empty 17 7 0 10 -262144
-1 -1;
#X text 432 -165 msec.;
#X obj 352 -164 metro 160;
#X msg 346 289 open gradDay.wav \, 1;
#X obj 22 -249 adc~ 1 2 3 4 5 6 7 8;
#X obj 352 -208 tgl 15 0 empty empty empty 17 7 0 10 -262144 -1 -1
1 1;
#X obj 352 -242 loadbang;
#X msg 167 114 stop;
#X obj 226 -88 bng 15 250 50 0 empty empty empty 17 7 0 10 -262144
-1 -1;
#X floatatom 224 -21 5 0 0 0 - - -, f 5;
#X text 272 -22 menos 20 sec;
#X obj 224 -43 random 6;
#X obj 210 156 readsf~ 4;
#X obj 224 2 sel 0 1 2 3;
#X msg 211 38 open 0077.wav \, 1;
#X msg 222 65 open 0077.wav \, 1;
#X msg 232 92 open 0077.wav \, 1;
#X msg 243 119 open 0077.wav \, 1;
#X obj 225 -65 metro 600000;
#X msg 337 -81 open 0077.wav \, 1;
#X obj 183 -136 threshold~ 1 3000 0.1 1000;
#X obj 350 42 readsf~ 1;
#X obj 277 -204 *~ 5.5;
#X connect 0 0 40 0;
#X connect 0 0 42 0;
#X connect 1 0 4 0;
#X connect 1 0 26 0;
#X connect 2 0 1 1;
#X connect 2 0 23 0;
#X connect 2 0 25 0;
#X connect 2 0 32 0;
#X connect 2 0 33 0;
#X connect 3 0 1 0;
#X connect 4 0 22 0;
#X connect 4 0 27 0;
#X connect 4 0 28 0;
#X connect 4 0 29 0;
#X connect 5 0 6 0;
#X connect 6 0 7 0;
#X connect 7 0 8 0;
#X connect 8 0 0 1;
#X connect 9 0 40 1;
#X connect 9 0 42 0;
#X connect 10 0 11 0;
#X connect 11 0 12 0;
#X connect 12 0 13 0;
#X connect 13 0 9 1;
#X connect 14 0 40 2;
#X connect 14 0 42 0;
#X connect 15 0 16 0;
#X connect 16 0 17 0;
#X connect 17 0 18 0;
#X connect 18 0 14 1;
#X connect 19 0 20 0;
#X connect 20 0 21 0;
#X connect 21 0 34 0;
#X connect 22 0 24 0;
#X connect 23 0 22 1;
#X connect 25 0 24 1;
#X connect 26 0 35 0;
#X connect 27 0 36 0;
#X connect 28 0 37 0;
#X connect 29 0 38 0;
#X connect 31 0 2 0;
#X connect 32 0 29 1;
#X connect 32 0 28 1;
#X connect 32 0 27 1;
#X connect 32 0 26 1;
#X connect 33 0 4 1;
#X connect 34 0 41 1;
#X connect 35 0 5 0;
#X connect 36 0 10 0;
#X connect 37 0 15 0;
#X connect 38 0 19 0;
#X connect 41 0 40 3;
#X connect 41 0 42 0;
#X connect 43 0 42 0;
#X connect 44 0 42 0;
#X connect 47 0 49 0;
#X connect 49 0 46 0;
#X connect 50 0 42 0;
#X connect 51 0 0 0;
#X connect 51 0 9 0;
#X connect 51 0 14 0;
#X connect 51 0 41 0;
#X connect 51 0 69 0;
#X connect 51 0 40 1;
#X connect 51 0 40 0;
#X connect 51 1 0 0;
#X connect 51 1 9 0;
#X connect 51 1 14 0;
#X connect 51 1 41 0;
#X connect 51 1 40 0;
#X connect 51 1 40 1;
#X connect 51 2 0 0;
#X connect 51 2 41 0;
#X connect 51 2 9 0;
#X connect 51 2 14 0;
#X connect 51 2 69 0;
#X connect 51 3 41 0;
#X connect 51 3 14 0;
#X connect 51 3 9 0;
#X connect 51 3 0 0;
#X connect 51 3 69 0;
#X connect 51 4 0 0;
#X connect 51 4 9 0;
#X connect 51 4 14 0;
#X connect 51 4 41 0;
#X connect 51 4 69 0;
#X connect 51 5 41 0;
#X connect 51 5 14 0;
#X connect 51 5 9 0;
#X connect 51 5 69 0;
#X connect 51 6 0 0;
#X connect 51 6 9 0;
#X connect 51 6 14 0;
#X connect 51 6 41 0;
#X connect 51 6 69 0;
#X connect 51 7 41 0;
#X connect 51 7 14 0;
#X connect 51 7 9 0;
#X connect 51 7 0 0;
#X connect 51 7 69 0;
#X connect 52 0 47 0;
#X connect 53 0 52 0;
#X connect 54 0 59 0;
#X connect 55 0 65 0;
#X connect 56 0 60 0;
#X connect 58 0 56 0;
#X connect 59 0 0 0;
#X connect 59 0 9 0;
#X connect 59 0 14 0;
#X connect 59 0 41 0;
#X connect 59 1 0 0;
#X connect 59 1 9 0;
#X connect 59 1 14 0;
#X connect 59 1 41 0;
#X connect 59 2 0 0;
#X connect 59 2 9 0;
#X connect 59 2 14 0;
#X connect 59 2 41 0;
#X connect 59 3 0 0;
#X connect 59 3 9 0;
#X connect 59 3 14 0;
#X connect 59 3 41 0;
#X connect 59 4 41 1;
#X connect 59 4 14 1;
#X connect 59 4 9 1;
#X connect 59 4 0 1;
#X connect 60 0 61 0;
#X connect 60 1 62 0;
#X connect 60 2 63 0;
#X connect 60 3 64 0;
#X connect 61 0 59 0;
#X connect 62 0 59 0;
#X connect 63 0 59 0;
#X connect 64 0 59 0;
#X connect 65 0 58 0;
#X connect 66 0 68 0;
#X connect 67 0 55 0;
#X connect 68 0 40 0;
#X connect 68 0 40 1;
#X connect 68 0 40 2;
#X connect 68 0 40 3;
#X connect 68 1 40 3;
#X connect 69 0 46 0;
#X connect 69 0 67 0;
