#N canvas 464 23 943 856 10;
#X obj 430 270 *~;
#X obj 485 -36 metro;
#X floatatom 520 -63 5 0 0 0 - - -, f 5;
#X obj 485 -63 tgl 15 0 empty empty empty 0 -6 0 8 -262144 -1 -1 0
1;
#X obj 524 6 del;
#X obj 396 129 line~;
#X obj 396 153 abs~;
#X obj 395 181 *~ -1;
#X obj 394 205 +~ 1;
#X obj 469 270 *~;
#X obj 493 129 line~;
#X obj 493 153 abs~;
#X obj 492 181 *~ -1;
#X obj 491 205 +~ 1;
#X obj 509 270 *~;
#X obj 602 130 line~;
#X obj 602 154 abs~;
#X obj 601 182 *~ -1;
#X obj 600 206 +~ 1;
#X obj 704 130 line~;
#X obj 704 154 abs~;
#X obj 703 182 *~ -1;
#X obj 598 32 del;
#X obj 617 2 / 4;
#X obj 701 58 del;
#X obj 720 28 / 4;
#X obj 396 80 f;
#X obj 493 80 f;
#X obj 602 81 f;
#X obj 704 83 f;
#X text 567 -64 speed;
#X obj 523 -97 hsl 128 30 0 2000 0 0 empty empty empty -2 -8 0 10 -262144
-1 -1 0 1;
#X obj 660 -35 / 2;
#X obj 543 -24 / 4;
#X obj 702 206 +~ 2;
#X msg 396 106 -1 \, 1 \$1;
#X msg 493 106 -1 \, 1 \$1;
#X msg 602 107 -1 \, 1 \$1;
#X msg 704 107 -1 \, 1 \$1;
#X text 459 -63 ON;
#X obj 374 522 dac~ 1 2 3 4;
#X obj 549 270 *~;
#X text 113 173 menos 20 sec;
#X obj 191 237 readsf~ 1;
#X msg 178 114 open 1.wav \, 1;
#X connect 0 0 40 0;
#X connect 1 0 4 0;
#X connect 1 0 26 0;
#X connect 2 0 1 1;
#X connect 2 0 23 0;
#X connect 2 0 25 0;
#X connect 2 0 32 0;
#X connect 2 0 33 0;
#X connect 3 0 1 0;
#X connect 4 0 22 0;
#X connect 4 0 27 0;
#X connect 4 0 28 0;
#X connect 4 0 29 0;
#X connect 5 0 6 0;
#X connect 6 0 7 0;
#X connect 7 0 8 0;
#X connect 8 0 0 1;
#X connect 9 0 40 1;
#X connect 10 0 11 0;
#X connect 11 0 12 0;
#X connect 12 0 13 0;
#X connect 13 0 9 1;
#X connect 14 0 40 2;
#X connect 15 0 16 0;
#X connect 16 0 17 0;
#X connect 17 0 18 0;
#X connect 18 0 14 1;
#X connect 19 0 20 0;
#X connect 20 0 21 0;
#X connect 21 0 34 0;
#X connect 22 0 24 0;
#X connect 23 0 22 1;
#X connect 25 0 24 1;
#X connect 26 0 35 0;
#X connect 27 0 36 0;
#X connect 28 0 37 0;
#X connect 29 0 38 0;
#X connect 31 0 2 0;
#X connect 32 0 29 1;
#X connect 32 0 28 1;
#X connect 32 0 27 1;
#X connect 32 0 26 1;
#X connect 33 0 4 1;
#X connect 34 0 41 1;
#X connect 35 0 5 0;
#X connect 36 0 10 0;
#X connect 37 0 15 0;
#X connect 38 0 19 0;
#X connect 41 0 40 3;
#X connect 43 0 40 0;
#X connect 43 0 40 1;
#X connect 43 0 40 2;
#X connect 43 0 40 3;
#X connect 43 1 40 3;
#X connect 44 0 43 0;
